<svg xmlns="http://www.w3.org/2000/svg" width="1720" height="1170" viewBox="0 0 1720 1170" font-family="'PingFang SC','Hiragino Sans GB','Microsoft YaHei','Noto Sans CJK SC',sans-serif">
  <defs>
    <marker id="arrow" viewBox="0 0 10 10" refX="9" refY="5" markerWidth="7" markerHeight="7" orient="auto-start-reverse">
      <path d="M 0 0 L 10 5 L 0 10 z" fill="#64748b"/>
    </marker>
    <marker id="arrowBlue" viewBox="0 0 10 10" refX="9" refY="5" markerWidth="7" markerHeight="7" orient="auto-start-reverse">
      <path d="M 0 0 L 10 5 L 0 10 z" fill="#2563eb"/>
    </marker>
  </defs>

  <rect x="0" y="0" width="1720" height="1170" fill="#ffffff"/>

  <!-- Title -->
  <text x="24" y="42" font-size="30" font-weight="700" fill="#111827">SYSTEM.DBF 结构与数据字典定位示意图</text>
  <text x="24" y="70" font-size="15" fill="#374151">基于 dmdul Standard Bootstrap 的结构化示意：从 page 0 锚点、SYSOBJECTS / SYSINDEXES 到系统字典与语义对象</text>

  <!-- ===== Left: file offset ruler + stages ===== -->
  <text x="30" y="108" font-size="13" fill="#374151">文件偏移</text>
  <text x="30" y="124" font-size="12" fill="#6b7280">（示意）</text>
  <text x="188" y="108" font-size="13" fill="#374151">大致位置</text>

  <line x1="118" y1="118" x2="118" y2="700" stroke="#9ca3af" stroke-width="1.5" marker-end="url(#arrow)"/>

  <text x="30" y="150" font-size="12.5" fill="#111827">0x00000000</text>
  <text x="30" y="166" font-size="12" fill="#6b7280">(0)</text>
  <text x="30" y="262" font-size="12.5" fill="#111827">0x00002000</text>
  <text x="30" y="278" font-size="12" fill="#6b7280">(8KB)</text>
  <text x="30" y="374" font-size="12.5" fill="#111827">0x0000A000</text>
  <text x="30" y="390" font-size="12" fill="#6b7280">(≈)</text>
  <text x="52" y="520" font-size="14" fill="#6b7280">…</text>
  <text x="30" y="688" font-size="12.5" fill="#374151">文件末尾</text>

  <g>
    <rect x="140" y="130" width="252" height="92" rx="10" fill="#eff6ff" stroke="#3b82f6" stroke-width="1.6"/>
    <text x="266" y="164" font-size="15.5" font-weight="700" fill="#1e3a8a" text-anchor="middle">① 数据头</text>
    <text x="266" y="184" font-size="13" fill="#1e40af" text-anchor="middle">File Header</text>
    <text x="266" y="203" font-size="12" fill="#475569" text-anchor="middle">（固定长度）</text>

    <rect x="140" y="242" width="252" height="92" rx="10" fill="#f0fdf4" stroke="#22c55e" stroke-width="1.6"/>
    <text x="266" y="276" font-size="15.5" font-weight="700" fill="#14532d" text-anchor="middle">② 初始化参数区</text>
    <text x="266" y="296" font-size="13" fill="#166534" text-anchor="middle">Init Parameter Area</text>
    <text x="266" y="315" font-size="12" fill="#475569" text-anchor="middle">（可变长度）</text>

    <rect x="140" y="354" width="252" height="92" rx="10" fill="#fffbeb" stroke="#f59e0b" stroke-width="1.6"/>
    <text x="266" y="386" font-size="15.5" font-weight="700" fill="#78350f" text-anchor="middle">③ 系统目录/字典页区</text>
    <text x="266" y="406" font-size="13" fill="#92400e" text-anchor="middle">Dictionary Page Area</text>
    <text x="266" y="425" font-size="12" fill="#475569" text-anchor="middle">（关键页定位）</text>

    <rect x="140" y="466" width="252" height="92" rx="10" fill="#faf5ff" stroke="#a855f7" stroke-width="1.6"/>
    <text x="266" y="498" font-size="15.5" font-weight="700" fill="#581c87" text-anchor="middle">④ 数据页链</text>
    <text x="266" y="518" font-size="13" fill="#6b21a8" text-anchor="middle">System Metadata Pages</text>
    <text x="266" y="537" font-size="12" fill="#475569" text-anchor="middle">（多页，按链表/区链存放）</text>

    <rect x="140" y="578" width="252" height="92" rx="10" fill="#eef2ff" stroke="#6366f1" stroke-width="1.6"/>
    <text x="266" y="610" font-size="15.5" font-weight="700" fill="#312e81" text-anchor="middle">⑤ 示例记录</text>
    <text x="266" y="630" font-size="13" fill="#3730a3" text-anchor="middle">Parsed Metadata Records</text>
    <text x="266" y="649" font-size="12" fill="#475569" text-anchor="middle">（解析后的字典对象）</text>
  </g>

  <!-- ===== Top middle: what the header means ===== -->
  <g>
    <rect x="424" y="96" width="530" height="216" rx="12" fill="#ffffff" stroke="#3b82f6" stroke-width="1.8"/>
    <rect x="560" y="108" width="258" height="34" rx="8" fill="#1d4ed8"/>
    <text x="689" y="131" font-size="16.5" font-weight="700" fill="#ffffff" text-anchor="middle">数据头代表什么</text>
    <g font-size="13.5" fill="#1f2937">
      <text x="452" y="170">•  <tspan font-weight="600">文件标识：</tspan>确认这是一个 SYSTEM.DBF</text>
      <text x="452" y="197">•  <tspan font-weight="600">版本/页大小：</tspan>识别创建版本与 PAGE_SIZE</text>
      <text x="452" y="224">•  <tspan font-weight="600">校验/状态：</tspan>一致性校验、打开状态、事务标识</text>
      <text x="452" y="251">•  <tspan font-weight="600">关键锚点：</tspan>page 0 内的固定偏移指向 SYSOBJECTS / SYSINDEXES 根</text>
      <text x="452" y="278">•  <tspan font-weight="600">后续结构入口：</tspan>其它控制字段与偏移起点</text>
    </g>
  </g>

  <!-- ===== Top right: init parameters ===== -->
  <g>
    <rect x="972" y="96" width="726" height="216" rx="12" fill="#f0fdf4" stroke="#16a34a" stroke-width="1.8"/>
    <rect x="1188" y="104" width="292" height="30" rx="8" fill="#15803d"/>
    <text x="1334" y="125" font-size="15.5" font-weight="700" fill="#ffffff" text-anchor="middle">初始化参数（示例）</text>
    <text x="1334" y="152" font-size="12.5" fill="#166534" text-anchor="middle">文件头之后的参数区（可变长度，记录启动/兼容设置）</text>
    <g font-size="12.5">
      <text x="1000" y="176" font-weight="600" fill="#14532d">示意偏移（大致位置）</text>
      <text x="1170" y="176" font-weight="600" fill="#14532d">原始字节（示例）</text>
      <text x="1370" y="176" font-weight="600" fill="#14532d">含义</text>
      <g fill="#1f2937">
        <text x="1000" y="198" font-family="Consolas,monospace">0x00000210</text><text x="1170" y="198" font-family="Consolas,monospace">4E 00 55 54 ...</text><text x="1370" y="198">字符集 / Charset = UTF-8（示例）</text>
        <text x="1000" y="218" font-family="Consolas,monospace">0x00000240</text><text x="1170" y="218" font-family="Consolas,monospace">44 4D 44 55 4C 00</text><text x="1370" y="218">数据库名 / Database Name = DMDUL</text>
        <text x="1000" y="238" font-family="Consolas,monospace">0x00000270</text><text x="1170" y="238" font-family="Consolas,monospace">01</text><text x="1370" y="238">大小写敏感 / Case Sensitivity = 1（敏感）</text>
        <text x="1000" y="258" font-family="Consolas,monospace">0x00000280</text><text x="1170" y="258" font-family="Consolas,monospace">00 20</text><text x="1370" y="258">页大小 / PAGE_SIZE = 8192 (0x2000)</text>
        <text x="1000" y="278" font-family="Consolas,monospace">0x00000282</text><text x="1170" y="278" font-family="Consolas,monospace">10 00</text><text x="1370" y="278">EXTENT 大小 = 16 页（示例）</text>
      </g>
      <text x="1000" y="300" font-size="11.5" fill="#dc2626">※ 以上为示意地址与字节布局，实际长度与位置随版本可能不同</text>
    </g>
  </g>

  <!-- ===== Bootstrap path band ===== -->
  <g>
    <rect x="424" y="330" width="1274" height="116" rx="12" fill="#f8fafc" stroke="#94a3b8" stroke-width="1.4"/>
    <rect x="700" y="320" width="470" height="28" rx="8" fill="#1e40af"/>
    <text x="935" y="339" font-size="14.5" font-weight="700" fill="#ffffff" text-anchor="middle">Standard Bootstrap 定位与解析路径（从 page 0 锚点开始）</text>
    <g font-size="12.8" fill="#111827" text-anchor="middle">
      <text x="500" y="394" font-weight="600">文件头/参数</text><text x="500" y="412" fill="#475569">识别与读取</text>
      <text x="646" y="394" font-weight="600">page 0</text><text x="646" y="412" fill="#475569">锚点</text>
      <text x="800" y="394" font-weight="600">SYSOBJECTS +</text><text x="800" y="412" font-weight="600">SYSINDEXES</text>
      <text x="962" y="394" font-weight="600">storage root</text><text x="962" y="412" fill="#475569">（存储根）</text>
      <text x="1118" y="394" font-weight="600">internal refs</text><text x="1118" y="412" fill="#475569">（内部引用链）</text>
      <text x="1268" y="394" font-weight="600">leaf chain</text><text x="1268" y="412" fill="#475569">（叶子链）</text>
      <text x="1428" y="394" font-weight="600">SYSCOLUMNS /</text><text x="1428" y="412" font-weight="600">SYSCOLINFOS 等字典</text>
      <text x="1610" y="394" font-weight="600">还原对象</text><text x="1610" y="412" font-weight="600">元数据</text>
    </g>
    <g stroke="#2563eb" stroke-width="1.8">
      <line x1="552" y1="398" x2="600" y2="398" marker-end="url(#arrowBlue)"/>
      <line x1="686" y1="398" x2="730" y2="398" marker-end="url(#arrowBlue)"/>
      <line x1="872" y1="398" x2="912" y2="398" marker-end="url(#arrowBlue)"/>
      <line x1="1014" y1="398" x2="1058" y2="398" marker-end="url(#arrowBlue)"/>
      <line x1="1176" y1="398" x2="1216" y2="398" marker-end="url(#arrowBlue)"/>
      <line x1="1316" y1="398" x2="1352" y2="398" marker-end="url(#arrowBlue)"/>
      <line x1="1512" y1="398" x2="1560" y2="398" marker-end="url(#arrowBlue)"/>
    </g>
  </g>

  <!-- ===== Four dictionary cards ===== -->
  <!-- SYSOBJECTS -->
  <g>
    <rect x="424" y="466" width="292" height="252" rx="12" fill="#eff6ff" stroke="#3b82f6" stroke-width="1.8"/>
    <text x="570" y="492" font-size="16" font-weight="700" fill="#1d4ed8" text-anchor="middle">SYSOBJECTS（对象字典）</text>
    <text x="440" y="514" font-size="12" fill="#334155"><tspan font-weight="600">作用：</tspan>记录所有数据库对象（表/索引/视图/序列等）</text>
    <rect x="440" y="524" width="260" height="180" rx="8" fill="#ffffff" stroke="#93c5fd" stroke-width="1.2"/>
    <text x="452" y="544" font-size="12" font-weight="600" fill="#1e40af">关键字段（示例）</text>
    <g font-size="11.8" fill="#1f2937">
      <text x="452" y="566">• OBJECT_ID　对象唯一标识</text>
      <text x="452" y="586">• PARENT_ID　父对象 ID（模式/用户等）</text>
      <text x="452" y="606">• OBJECT_TYPE　类型（表/索引/视图…）</text>
      <text x="452" y="626">• NAME　名称</text>
      <text x="452" y="646">• SCHEMA_ID　所属模式/用户</text>
      <text x="452" y="666">• FLAGS/STATUS　状态/标志/属性</text>
      <text x="452" y="686">• ...</text>
    </g>
  </g>
  <g>
    <line x1="716" y1="590" x2="748" y2="590" stroke="#64748b" stroke-width="1.8" marker-end="url(#arrow)"/>
    <text x="732" y="576" font-size="11.5" fill="#475569" text-anchor="middle">识别</text>
    <text x="732" y="614" font-size="11.5" fill="#475569" text-anchor="middle">对象</text>
  </g>

  <!-- SYSINDEXES -->
  <g>
    <rect x="748" y="466" width="292" height="252" rx="12" fill="#f0fdf4" stroke="#16a34a" stroke-width="1.8"/>
    <text x="894" y="492" font-size="16" font-weight="700" fill="#15803d" text-anchor="middle">SYSINDEXES（索引与存储入口）</text>
    <text x="764" y="514" font-size="12" fill="#334155"><tspan font-weight="600">作用：</tspan>将对象/索引映射到存储根与索引元数据</text>
    <rect x="764" y="524" width="260" height="180" rx="8" fill="#ffffff" stroke="#86efac" stroke-width="1.2"/>
    <text x="776" y="544" font-size="12" font-weight="600" fill="#166534">关键字段（示例）</text>
    <g font-size="11.8" fill="#1f2937">
      <text x="776" y="566">• ID　索引唯一标识</text>
      <text x="776" y="586">• TABLEID　关联的对象 ID（表）</text>
      <text x="776" y="606">• STORAGE_ID　存储起点 ID</text>
      <text x="776" y="626">• GROUP_ID　文件组 ID</text>
      <text x="776" y="646">• ROOT_FILE　根页所在文件号</text>
      <text x="776" y="666">• ROOT_PAGE　根页号（storage root）</text>
      <text x="776" y="686">• INDEX_TYPE　索引类型（BT 等）</text>
    </g>
  </g>
  <g>
    <line x1="1040" y1="590" x2="1072" y2="590" stroke="#64748b" stroke-width="1.8" marker-end="url(#arrow)"/>
    <text x="1056" y="576" font-size="11.5" fill="#475569" text-anchor="middle">映射到</text>
    <text x="1056" y="614" font-size="11.5" fill="#475569" text-anchor="middle">存储根</text>
  </g>

  <!-- SYSCOLUMNS -->
  <g>
    <rect x="1072" y="466" width="292" height="252" rx="12" fill="#f0fdfa" stroke="#0d9488" stroke-width="1.8"/>
    <text x="1218" y="492" font-size="16" font-weight="700" fill="#0f766e" text-anchor="middle">SYSCOLUMNS（列定义字典）</text>
    <text x="1088" y="514" font-size="12" fill="#334155"><tspan font-weight="600">作用：</tspan>记录表对象的列定义</text>
    <rect x="1088" y="524" width="260" height="180" rx="8" fill="#ffffff" stroke="#5eead4" stroke-width="1.2"/>
    <text x="1100" y="544" font-size="12" font-weight="600" fill="#115e59">关键字段（示例）</text>
    <g font-size="11.8" fill="#1f2937">
      <text x="1100" y="566">• COLUMN_ID　列序号</text>
      <text x="1100" y="586">• OBJECT_ID　所属表 OBJECT_ID</text>
      <text x="1100" y="606">• NAME　列名</text>
      <text x="1100" y="626">• TYPE_ID　类型 ID</text>
      <text x="1100" y="646">• LENGTH　长度（字节/字符）</text>
      <text x="1100" y="666">• NULLABLE　是否可空</text>
      <text x="1100" y="686">• DEFAULT_FLAG　是否有默认值</text>
    </g>
  </g>
  <g>
    <line x1="1364" y1="590" x2="1396" y2="590" stroke="#64748b" stroke-width="1.8" marker-end="url(#arrow)"/>
    <text x="1380" y="576" font-size="11.5" fill="#475569" text-anchor="middle">到达</text>
    <text x="1380" y="614" font-size="11.5" fill="#475569" text-anchor="middle">字典页</text>
  </g>

  <!-- SYSCOLINFOS -->
  <g>
    <rect x="1396" y="466" width="302" height="252" rx="12" fill="#faf5ff" stroke="#9333ea" stroke-width="1.8"/>
    <text x="1547" y="492" font-size="16" font-weight="700" fill="#7e22ce" text-anchor="middle">SYSCOLINFOS（列信息字典）</text>
    <text x="1412" y="514" font-size="12" fill="#334155"><tspan font-weight="600">作用：</tspan>补充列的类型与存储属性细节</text>
    <rect x="1412" y="524" width="270" height="180" rx="8" fill="#ffffff" stroke="#d8b4fe" stroke-width="1.2"/>
    <text x="1424" y="544" font-size="12" font-weight="600" fill="#6b21a8">关键字段（示例）</text>
    <g font-size="11.8" fill="#1f2937">
      <text x="1424" y="566">• TYPE_ID　类型唯一标识</text>
      <text x="1424" y="586">• DATA_TYPE　数据类型（INT/CHAR…）</text>
      <text x="1424" y="606">• PRECISION　精度（如 DECIMAL）</text>
      <text x="1424" y="626">• SCALE　小数位数（如 DECIMAL）</text>
      <text x="1424" y="646">• CHARSET_ID　字符集</text>
      <text x="1424" y="666">• COLLATION_ID　排序规则</text>
      <text x="1424" y="686">• STORAGE_ATTR　存储属性</text>
    </g>
  </g>

  <!-- ===== Bottom left: raw address to semantic object ===== -->
  <g>
    <rect x="24" y="742" width="640" height="330" rx="12" fill="#fffbeb" stroke="#f59e0b" stroke-width="1.8"/>
    <text x="344" y="770" font-size="16" font-weight="700" fill="#b45309" text-anchor="middle">原始地址 → 语义对象（示例）</text>

    <rect x="44" y="788" width="238" height="72" rx="8" fill="#ffffff" stroke="#fbbf24" stroke-width="1.2"/>
    <text x="58" y="816" font-size="12.5" font-weight="600" fill="#1f2937">Page 0x0001A2 / Slot 03</text>
    <text x="58" y="838" font-size="12" fill="#475569">记录偏移 0x02F0</text>
    <line x1="282" y1="824" x2="330" y2="824" stroke="#64748b" stroke-width="1.6" marker-end="url(#arrow)"/>
    <text x="306" y="812" font-size="11" fill="#475569" text-anchor="middle">解析为</text>
    <text x="336" y="820" font-size="12" font-weight="600" fill="#1e40af">SYSOBJECTS 记录</text>
    <g font-size="11.5" font-family="Consolas,monospace" fill="#1f2937">
      <rect x="452" y="788" width="196" height="76" rx="6" fill="#ffffff" stroke="#fde68a"/>
      <text x="460" y="804">NAME = T_TRUNCATE_TEST</text>
      <text x="460" y="820">OBJECT_TYPE = TABLE</text>
      <text x="460" y="836">OBJECT_ID = 0x00001234</text>
      <text x="460" y="852">SCHEMA = DBO</text>
    </g>

    <rect x="44" y="880" width="238" height="72" rx="8" fill="#ffffff" stroke="#fbbf24" stroke-width="1.2"/>
    <text x="58" y="908" font-size="12.5" font-weight="600" fill="#1f2937">Page 0x0001B8 / Slot 07</text>
    <text x="58" y="930" font-size="12" fill="#475569">记录偏移 0x0150</text>
    <line x1="282" y1="916" x2="330" y2="916" stroke="#64748b" stroke-width="1.6" marker-end="url(#arrow)"/>
    <text x="306" y="904" font-size="11" fill="#475569" text-anchor="middle">解析为</text>
    <text x="336" y="912" font-size="12" font-weight="600" fill="#15803d">SYSINDEXES 记录</text>
    <g font-size="11.5" font-family="Consolas,monospace" fill="#1f2937">
      <rect x="452" y="874" width="196" height="92" rx="6" fill="#ffffff" stroke="#fde68a"/>
      <text x="460" y="890">ID = 0x00A1B2C3</text>
      <text x="460" y="906">TABLEID = 0x00001234</text>
      <text x="460" y="922">ROOT_FILE = 0x0003</text>
      <text x="460" y="938">ROOT_PAGE = 0x00001234</text>
      <text x="460" y="954">INDEX_TYPE = BT</text>
    </g>

    <rect x="44" y="978" width="238" height="72" rx="8" fill="#ffffff" stroke="#fbbf24" stroke-width="1.2"/>
    <text x="58" y="1006" font-size="12.5" font-weight="600" fill="#1f2937">Page 0x0001C3 / Slot 11</text>
    <text x="58" y="1028" font-size="12" fill="#475569">记录偏移 0x00B0</text>
    <line x1="282" y1="1014" x2="330" y2="1014" stroke="#64748b" stroke-width="1.6" marker-end="url(#arrow)"/>
    <text x="306" y="1002" font-size="11" fill="#475569" text-anchor="middle">解析为</text>
    <text x="336" y="1010" font-size="12" font-weight="600" fill="#0f766e">SYSCOLUMNS 记录</text>
    <g font-size="11.5" font-family="Consolas,monospace" fill="#1f2937">
      <rect x="452" y="972" width="196" height="92" rx="6" fill="#ffffff" stroke="#fde68a"/>
      <text x="460" y="988">COLUMN_ID = 1</text>
      <text x="460" y="1004">OBJECT_ID = 0x00001234</text>
      <text x="460" y="1020">NAME = ID</text>
      <text x="460" y="1036">TYPE_ID = 0x0000002A</text>
      <text x="460" y="1052">LENGTH = 4, NULLABLE = N</text>
    </g>
  </g>
  <text x="24" y="1092" font-size="11.5" fill="#92400e">※ 以上为示例路径，实际页号/槽位/偏移随版本与数据而异</text>

  <!-- ===== Bottom middle: exported objects ===== -->
  <g>
    <rect x="684" y="742" width="560" height="330" rx="12" fill="#fef2f2" stroke="#ef4444" stroke-width="1.8"/>
    <text x="964" y="770" font-size="16" font-weight="700" fill="#b91c1c" text-anchor="middle">dmdul 汇总还原出的对象（导出视图）</text>
    <g font-size="12.5" fill="#1f2937" text-anchor="middle">
      <rect x="704" y="786" width="98" height="64" rx="8" fill="#ffffff" stroke="#fecaca"/>
      <text x="753" y="812" font-weight="600">用户/模式</text><text x="753" y="832" font-size="11" fill="#6b7280">Users/Schemas</text>
      <rect x="812" y="786" width="98" height="64" rx="8" fill="#ffffff" stroke="#fecaca"/>
      <text x="861" y="812" font-weight="600">表</text><text x="861" y="832" font-size="11" fill="#6b7280">Tables</text>
      <rect x="920" y="786" width="98" height="64" rx="8" fill="#ffffff" stroke="#fecaca"/>
      <text x="969" y="812" font-weight="600">列</text><text x="969" y="832" font-size="11" fill="#6b7280">Columns</text>
      <rect x="1028" y="786" width="98" height="64" rx="8" fill="#ffffff" stroke="#fecaca"/>
      <text x="1077" y="812" font-weight="600">视图</text><text x="1077" y="832" font-size="11" fill="#6b7280">Views</text>
      <rect x="1136" y="786" width="88" height="64" rx="8" fill="#ffffff" stroke="#fecaca"/>
      <text x="1180" y="812" font-weight="600">序列</text><text x="1180" y="832" font-size="11" fill="#6b7280">Sequences</text>
    </g>

    <g font-size="12" fill="#1f2937">
      <rect x="704" y="866" width="248" height="52" rx="8" fill="#ffffff" stroke="#fca5a5" stroke-width="1.2"/>
      <text x="716" y="888" font-weight="600">定位到 storage root</text>
      <text x="716" y="906" fill="#475569">（文件 0x0003 / 页 0x00001234）</text>
      <line x1="952" y1="892" x2="984" y2="892" stroke="#64748b" stroke-width="1.6" marker-end="url(#arrow)"/>
      <rect x="988" y="866" width="248" height="52" rx="8" fill="#ffffff" stroke="#fca5a5" stroke-width="1.2"/>
      <text x="1000" y="888" font-weight="600">沿 internal refs → leaf chain</text>
      <text x="1000" y="906" fill="#475569">遍历叶子页，定位字典/数据页</text>
    </g>

    <g font-size="12.5" fill="#1f2937" text-anchor="middle">
      <rect x="704" y="936" width="98" height="64" rx="8" fill="#ffffff" stroke="#fecaca"/>
      <text x="753" y="962" font-weight="600">存储过程</text><text x="753" y="982" font-size="11" fill="#6b7280">Routines</text>
      <rect x="812" y="936" width="98" height="64" rx="8" fill="#ffffff" stroke="#fecaca"/>
      <text x="861" y="962" font-weight="600">触发器</text><text x="861" y="982" font-size="11" fill="#6b7280">Triggers</text>
      <rect x="920" y="936" width="98" height="64" rx="8" fill="#ffffff" stroke="#fecaca"/>
      <text x="969" y="962" font-weight="600">同义词</text><text x="969" y="982" font-size="11" fill="#6b7280">Synonyms</text>
      <rect x="1028" y="936" width="98" height="64" rx="8" fill="#ffffff" stroke="#fecaca"/>
      <text x="1077" y="962" font-weight="600">权限/角色</text><text x="1077" y="982" font-size="11" fill="#6b7280">Privileges</text>
      <rect x="1136" y="936" width="88" height="64" rx="8" fill="#ffffff" stroke="#fecaca"/>
      <text x="1180" y="972" font-weight="700" fill="#6b7280">…</text>
    </g>
    <text x="964" y="1044" font-size="13" font-weight="600" fill="#b91c1c" text-anchor="middle">dmdul 将以上字典信息导出为结构化结果（dmdul_dict TSV / DDL / SQL / CSV / DMP）</text>
  </g>

  <!-- ===== Bottom right: key points ===== -->
  <g>
    <rect x="1264" y="742" width="434" height="330" rx="12" fill="#f8fafc" stroke="#64748b" stroke-width="1.6"/>
    <text x="1481" y="772" font-size="16" font-weight="700" fill="#0f172a" text-anchor="middle">关键要点速览</text>
    <g font-size="12.8" fill="#1f2937">
      <text x="1286" y="806" fill="#16a34a" font-weight="700">✓</text>
      <text x="1306" y="806">Standard Bootstrap 以 SYSOBJECTS +</text>
      <text x="1306" y="824">SYSINDEXES 为关键锚点</text>
      <text x="1286" y="852" fill="#16a34a" font-weight="700">✓</text>
      <text x="1306" y="852">SYSINDEXES 的 storage root 是精确页定位入口</text>
      <text x="1286" y="880" fill="#16a34a" font-weight="700">✓</text>
      <text x="1306" y="880">通过 root → internal refs → leaf chain</text>
      <text x="1306" y="898">可稳定到达字典与数据页</text>
      <text x="1286" y="926" fill="#16a34a" font-weight="700">✓</text>
      <text x="1306" y="926">SYSOBJECTS 识别对象，SYSINDEXES 映射存储根，</text>
      <text x="1306" y="944">字典表还原列与类型信息</text>
      <text x="1286" y="972" fill="#16a34a" font-weight="700">✓</text>
      <text x="1306" y="972">原始地址（页/槽/偏移）是解析的锚点，</text>
      <text x="1306" y="990">语义对象是最终的目标</text>
      <text x="1286" y="1018" fill="#16a34a" font-weight="700">✓</text>
      <text x="1306" y="1018">不同版本偏移与结构可能不同，</text>
      <text x="1306" y="1036">以上均为示意与经验总结</text>
    </g>
  </g>

  <!-- Footer note -->
  <g>
    <rect x="70" y="1110" width="1200" height="34" rx="8" fill="#eff6ff" stroke="#bfdbfe"/>
    <text x="88" y="1132" font-size="12.5" fill="#1e40af">ⓘ  说明：本图为结构与定位思路的示意，不代表任何官方文档或固定实现细节；实际地址、页号、链式结构与字段布局会随版本与平台变化。</text>
  </g>
</svg>
